<mxfile host="app.diagrams.net" modified="2024-06-13T06:27:16.495Z" agent="Mozilla/5.0 (Windows NT 10.0; Win64; x64) AppleWebKit/537.36 (KHTML, like Gecko) Chrome/126.0.0.0 Safari/537.36" version="24.5.4" etag="Lq2dABNDX7NtgueUyxLk" type="github">
  <diagram name="第 1 页" id="kXmxx5Vy8HUUgNQfDJU7">
    <mxGraphModel>
      <root>
        <mxCell id="0" />
        <mxCell id="1" parent="0" />
      </root>
    </mxGraphModel>
  </diagram>
</mxfile>
